# xmcd CD database file
#
# Track frame offsets:
#	150
#	13786
#	26797
#	40704
#	54394
#	67531
#	79016
#	91024
#	103750
#	116585
#	127755
#	140912
#	155385
#	168441
#	181936
#	194519
#	207219
#	220821
#	235043
#	248141
#	260438
#	273766
#	287118
#	299774
#	312612
#	324132
#
# Disc length: 4496 seconds
#
# Revision: 0
# Processed by: cddbd v1.5.2PL0 Copyright (c) Steve Scherf et al.
# Submitted via: CDex 1.82
#
DISCID=6f118e1a
DTITLE=B.B. King - Charly Blues masterworks Vol. 09
DYEAR=2009
DGENRE=Blues
TTITLE0=3 O'Clock Blues
TTITLE1=Please Love Me
TTITLE2=You Know I Love You
TTITLE3=You Upset Me, Baby
TTITLE4=On My Word of Honour
TTITLE5=Please Accept My Love
TTITLE6=You've Been An Angel
TTITLE7=I Want To Get Married
TTITLE8=Why Do Everything Happen To Me
TTITLE9=Days of Old
TTITLE10=Troubles, Troubles
TTITLE11=Sweet Little Angel
TTITLE12=Bad Luck
TTITLE13=Crying Won't Help You
TTITLE14=Ten Long Years
TTITLE15=Every Day I Have The Blues
TTITLE16=Sneakin' Around
TTITLE17=Whole Lotta Love
TTITLE18=When My Heart Beats Like a Hammer
TTITLE19=Please Hurry Home
TTITLE20=Woke Up This Morning
TTITLE21=Story From My Heart and Soul
TTITLE22=I Wonder
TTITLE23=Be Careful With a Fool
TTITLE24=(I'm Gonna) Quit My Baby
TTITLE25=I Need You So Bad
EXTD=YEAR: 2009
EXTT0=
EXTT1=
EXTT2=
EXTT3=
EXTT4=
EXTT5=
EXTT6=
EXTT7=
EXTT8=
EXTT9=
EXTT10=
EXTT11=
EXTT12=
EXTT13=
EXTT14=
EXTT15=
EXTT16=
EXTT17=
EXTT18=
EXTT19=
EXTT20=
EXTT21=
EXTT22=
EXTT23=
EXTT24=
EXTT25=
PLAYORDER=
